<svg width="38" height="45" viewBox="0 0 38 45" fill="none" xmlns="http://www.w3.org/2000/svg">
<mask id="path-1-outside-1_12_4" maskUnits="userSpaceOnUse" x="-2" y="-1" width="41" height="47" fill="black">
<rect fill="white" x="-2" y="-1" width="41" height="47"/>
<path d="M28.5625 0.59375H34.5938L37.6562 45H32.2812L31.4688 32.0938H13.1562L4.96875 45H0.0625L28.5625 0.59375ZM29.875 5.78125L16.0938 27.4375H31.1875L29.875 5.78125Z"/>
</mask>
<path d="M28.5625 0.59375H34.5938L37.6562 45H32.2812L31.4688 32.0938H13.1562L4.96875 45H0.0625L28.5625 0.59375ZM29.875 5.78125L16.0938 27.4375H31.1875L29.875 5.78125Z" fill="#131313"/>
<path d="M28.5625 0.59375V-0.40625H28.0161L27.7209 0.0536212L28.5625 0.59375ZM34.5938 0.59375L35.5914 0.524948L35.5272 -0.40625H34.5938V0.59375ZM37.6562 45V46H38.7276L38.6539 44.9312L37.6562 45ZM32.2812 45L31.2832 45.0628L31.3422 46H32.2812V45ZM31.4688 32.0938L32.4668 32.0309L32.4078 31.0938H31.4688V32.0938ZM13.1562 32.0938V31.0938H12.6064L12.3118 31.5581L13.1562 32.0938ZM4.96875 45V46H5.51861L5.81317 45.5357L4.96875 45ZM0.0625 45L-0.779082 44.4599L-1.76754 46H0.0625V45ZM29.875 5.78125L30.8732 5.72075L30.6866 2.64317L29.0313 5.24437L29.875 5.78125ZM16.0938 27.4375L15.2501 26.9006L14.2721 28.4375H16.0938V27.4375ZM31.1875 27.4375V28.4375H32.2499L32.1857 27.377L31.1875 27.4375ZM28.5625 1.59375H34.5938V-0.40625H28.5625V1.59375ZM33.5961 0.662552L36.6586 45.0688L38.6539 44.9312L35.5914 0.524948L33.5961 0.662552ZM37.6562 44H32.2812V46H37.6562V44ZM33.2793 44.9372L32.4668 32.0309L30.4707 32.1566L31.2832 45.0628L33.2793 44.9372ZM31.4688 31.0938H13.1562V33.0938H31.4688V31.0938ZM12.3118 31.5581L4.12433 44.4643L5.81317 45.5357L14.0007 32.6294L12.3118 31.5581ZM4.96875 44H0.0625V46H4.96875V44ZM0.904082 45.5401L29.4041 1.13388L27.7209 0.0536212L-0.779082 44.4599L0.904082 45.5401ZM29.0313 5.24437L15.2501 26.9006L16.9374 27.9744L30.7187 6.31813L29.0313 5.24437ZM16.0938 28.4375H31.1875V26.4375H16.0938V28.4375ZM32.1857 27.377L30.8732 5.72075L28.8768 5.84175L30.1893 27.498L32.1857 27.377Z" fill="black" mask="url(#path-1-outside-1_12_4)"/>
</svg>
